<svg id="calendar" xmlns="http://www.w3.org/2000/svg" width="37.071" height="37.071" viewBox="0 0 37.071 37.071">
  <g id="Group_8" data-name="Group 8">
    <g id="Group_7" data-name="Group 7">
      <path id="Path_13" data-name="Path 13" d="M32.727,2.9H30.989V0h-2.9V2.9H8.978V0h-2.9V2.9H4.344A4.349,4.349,0,0,0,0,7.24V32.727a4.349,4.349,0,0,0,4.344,4.344H32.727a4.349,4.349,0,0,0,4.344-4.344V7.24A4.349,4.349,0,0,0,32.727,2.9Zm1.448,29.83a1.45,1.45,0,0,1-1.448,1.448H4.344A1.45,1.45,0,0,1,2.9,32.727V13.612H34.175Zm0-22.011H2.9V7.24A1.45,1.45,0,0,1,4.344,5.792H6.082v2.9h2.9v-2.9H28.093v2.9h2.9v-2.9h1.738A1.45,1.45,0,0,1,34.175,7.24Z" fill="#707070"/>
    </g>
  </g>
  <g id="Group_10" data-name="Group 10" transform="translate(5.081 16.938)">
    <g id="Group_9" data-name="Group 9" transform="translate(0 0)">
      <rect id="Rectangle_10" data-name="Rectangle 10" width="3" height="2" transform="translate(-0.081 0.062)" fill="#707070"/>
    </g>
  </g>
  <g id="Group_12" data-name="Group 12" transform="translate(11.01 16.938)">
    <g id="Group_11" data-name="Group 11" transform="translate(0 0)">
      <rect id="Rectangle_11" data-name="Rectangle 11" width="3" height="2" transform="translate(-0.01 0.062)" fill="#707070"/>
    </g>
  </g>
  <g id="Group_14" data-name="Group 14" transform="translate(16.938 16.938)">
    <g id="Group_13" data-name="Group 13" transform="translate(0 0)">
      <rect id="Rectangle_12" data-name="Rectangle 12" width="3" height="2" transform="translate(0.062 0.062)" fill="#707070"/>
    </g>
  </g>
  <g id="Group_16" data-name="Group 16" transform="translate(22.866 16.938)">
    <g id="Group_15" data-name="Group 15" transform="translate(0 0)">
      <rect id="Rectangle_13" data-name="Rectangle 13" width="2" height="2" transform="translate(0.134 0.062)" fill="#707070"/>
    </g>
  </g>
  <g id="Group_18" data-name="Group 18" transform="translate(28.794 16.938)">
    <g id="Group_17" data-name="Group 17" transform="translate(0 0)">
      <rect id="Rectangle_14" data-name="Rectangle 14" width="2" height="2" transform="translate(0.206 0.062)" fill="#707070"/>
    </g>
  </g>
  <g id="Group_20" data-name="Group 20" transform="translate(5.081 22.019)">
    <g id="Group_19" data-name="Group 19" transform="translate(0 0)">
      <rect id="Rectangle_15" data-name="Rectangle 15" width="3" height="3" transform="translate(-0.081 -0.019)" fill="#707070"/>
    </g>
  </g>
  <g id="Group_22" data-name="Group 22" transform="translate(11.01 22.019)">
    <g id="Group_21" data-name="Group 21" transform="translate(0 0)">
      <rect id="Rectangle_16" data-name="Rectangle 16" width="3" height="3" transform="translate(-0.01 -0.019)" fill="#707070"/>
    </g>
  </g>
  <g id="Group_24" data-name="Group 24" transform="translate(16.938 22.019)">
    <g id="Group_23" data-name="Group 23" transform="translate(0 0)">
      <rect id="Rectangle_17" data-name="Rectangle 17" width="3" height="3" transform="translate(0.062 -0.019)" fill="#707070"/>
    </g>
  </g>
  <g id="Group_26" data-name="Group 26" transform="translate(22.866 22.019)">
    <g id="Group_25" data-name="Group 25" transform="translate(0 0)">
      <rect id="Rectangle_18" data-name="Rectangle 18" width="2" height="3" transform="translate(0.134 -0.019)" fill="#707070"/>
    </g>
  </g>
  <g id="Group_28" data-name="Group 28" transform="translate(5.081 27.948)">
    <g id="Group_27" data-name="Group 27" transform="translate(0 0)">
      <rect id="Rectangle_19" data-name="Rectangle 19" width="3" height="3" transform="translate(-0.081 0.052)" fill="#707070"/>
    </g>
  </g>
  <g id="Group_30" data-name="Group 30" transform="translate(11.01 27.948)">
    <g id="Group_29" data-name="Group 29" transform="translate(0 0)">
      <rect id="Rectangle_20" data-name="Rectangle 20" width="3" height="3" transform="translate(-0.01 0.052)" fill="#707070"/>
    </g>
  </g>
  <g id="Group_32" data-name="Group 32" transform="translate(16.938 27.948)">
    <g id="Group_31" data-name="Group 31" transform="translate(0 0)">
      <rect id="Rectangle_21" data-name="Rectangle 21" width="3" height="3" transform="translate(0.062 0.052)" fill="#707070"/>
    </g>
  </g>
  <g id="Group_34" data-name="Group 34" transform="translate(22.866 27.948)">
    <g id="Group_33" data-name="Group 33" transform="translate(0 0)">
      <rect id="Rectangle_22" data-name="Rectangle 22" width="2" height="3" transform="translate(0.134 0.052)" fill="#707070"/>
    </g>
  </g>
  <g id="Group_36" data-name="Group 36" transform="translate(28.794 22.019)">
    <g id="Group_35" data-name="Group 35" transform="translate(0 0)">
      <rect id="Rectangle_23" data-name="Rectangle 23" width="2" height="3" transform="translate(0.206 -0.019)" fill="#707070"/>
    </g>
  </g>
</svg>
