<svg xmlns="http://www.w3.org/2000/svg" width="39.563" height="39.566" viewBox="0 0 39.563 39.566">
  <g id="contract_1_" data-name="contract (1)" transform="translate(-0.018)">
    <g id="Group_40" data-name="Group 40" transform="translate(0.018)">
      <g id="Group_39" data-name="Group 39" transform="translate(0)">
        <path id="Path_14" data-name="Path 14" d="M38.562,12.452a3.482,3.482,0,0,0-4.918,0l-3.487,3.49V6.756A3.454,3.454,0,0,0,29.138,4.3L25.859,1.019A3.454,3.454,0,0,0,23.4,0H3.5A3.481,3.481,0,0,0,.018,3.477V36.089A3.481,3.481,0,0,0,3.5,39.566H26.679a3.481,3.481,0,0,0,3.477-3.477V25.782l8.406-8.413A3.475,3.475,0,0,0,38.562,12.452ZM23.2,2.318a1.265,1.265,0,0,1,1.019.339L27.5,5.936a1.265,1.265,0,0,1,.34,1.019H23.2Zm4.637,33.77a1.16,1.16,0,0,1-1.159,1.159H3.5a1.16,1.16,0,0,1-1.159-1.159V3.477A1.16,1.16,0,0,1,3.5,2.318H20.883v5.8a1.159,1.159,0,0,0,1.159,1.159h5.8v8.989l-3.42,3.423-1.639,1.639a1.159,1.159,0,0,0-.28.453L20.86,28.695a1.159,1.159,0,0,0,1.466,1.466l4.918-1.639a1.158,1.158,0,0,0,.453-.28l.141-.141v7.987Zm-2.6-11.945,1.639,1.639-.626.626-2.459.82.82-2.459Zm3.278,0L26.877,22.5l5.572-5.577,1.639,1.639Zm8.406-8.413-1.195,1.2-1.639-1.639,1.2-1.2a1.159,1.159,0,1,1,1.639,1.64Z" transform="translate(-0.018 0)" fill="#707070"/>
      </g>
    </g>
    <g id="Group_42" data-name="Group 42" transform="translate(4.655 11.592)">
      <g id="Group_41" data-name="Group 41">
        <path id="Path_15" data-name="Path 15" d="M77.405,150H61.177a1.159,1.159,0,0,0,0,2.318H77.405a1.159,1.159,0,0,0,0-2.318Z" transform="translate(-60.018 -150)" fill="#707070"/>
      </g>
    </g>
    <g id="Group_44" data-name="Group 44" transform="translate(4.655 16.228)">
      <g id="Group_43" data-name="Group 43">
        <path id="Path_16" data-name="Path 16" d="M72.769,210H61.177a1.159,1.159,0,1,0,0,2.318H72.769a1.159,1.159,0,1,0,0-2.318Z" transform="translate(-60.018 -210)" fill="#707070"/>
      </g>
    </g>
    <g id="Group_46" data-name="Group 46" transform="translate(4.655 20.865)">
      <g id="Group_45" data-name="Group 45">
        <path id="Path_17" data-name="Path 17" d="M72.769,270H61.177a1.159,1.159,0,1,0,0,2.318H72.769a1.159,1.159,0,1,0,0-2.318Z" transform="translate(-60.018 -270)" fill="#707070"/>
      </g>
    </g>
    <g id="Group_48" data-name="Group 48" transform="translate(4.655 25.502)">
      <g id="Group_47" data-name="Group 47">
        <path id="Path_18" data-name="Path 18" d="M72.769,330H61.177a1.159,1.159,0,0,0,0,2.318H72.769a1.159,1.159,0,0,0,0-2.318Z" transform="translate(-60.018 -330)" fill="#707070"/>
      </g>
    </g>
    <g id="Group_50" data-name="Group 50" transform="translate(13.928 32.611)">
      <g id="Group_49" data-name="Group 49">
        <path id="Path_19" data-name="Path 19" d="M188.132,422h-6.955a1.159,1.159,0,1,0,0,2.318h6.955a1.159,1.159,0,1,0,0-2.318Z" transform="translate(-180.018 -422)" fill="#707070"/>
      </g>
    </g>
  </g>
</svg>
