<svg xmlns="http://www.w3.org/2000/svg" width="52.864" height="34.739" viewBox="0 0 52.864 34.739">
  <g id="teamwork" transform="translate(0 -87.646)">
    <path id="Path_4" data-name="Path 4" d="M181.009,104.872a8.613,8.613,0,1,0-8.613-8.613A8.623,8.623,0,0,0,181.009,104.872Zm0-14.124a5.511,5.511,0,1,1-5.511,5.511A5.517,5.517,0,0,1,181.009,90.748Z" transform="translate(-154.57)" fill="#707070"/>
    <path id="Path_5" data-name="Path 5" d="M359.291,137.658a6.549,6.549,0,1,0-6.549-6.549A6.557,6.557,0,0,0,359.291,137.658Zm0-10a3.447,3.447,0,1,1-3.447,3.447A3.451,3.451,0,0,1,359.291,127.662Z" transform="translate(-316.269 -33.097)" fill="#707070"/>
    <path id="Path_6" data-name="Path 6" d="M46.267,268.566H39.778a6.693,6.693,0,0,0-4.929,2.244,9.339,9.339,0,0,0-4.542-1.173H22.571A9.338,9.338,0,0,0,18,270.829a6.568,6.568,0,0,0-4.909-2.187H6.6a6.6,6.6,0,0,0-6.6,6.6v2.454a1.551,1.551,0,0,0,1.551,1.551H13.173v3.8a1.551,1.551,0,0,0,1.551,1.551H38.153a1.551,1.551,0,0,0,1.551-1.551v-3.878H51.313a1.551,1.551,0,0,0,1.551-1.551v-2.454A6.6,6.6,0,0,0,46.267,268.566ZM3.1,275.239a3.5,3.5,0,0,1,3.5-3.5h6.489a3.48,3.48,0,0,1,2.48,1.033,9.4,9.4,0,0,0-1.937,3.366H3.1ZM36.6,281.5H16.275v-2.462a6.3,6.3,0,0,1,6.3-6.3h7.735a6.3,6.3,0,0,1,6.3,6.3V281.5Zm13.16-5.429H39.223a9.4,9.4,0,0,0-1.937-3.317,3.589,3.589,0,0,1,2.491-1.082h6.489a3.5,3.5,0,0,1,3.5,3.5Z" transform="translate(0 -162.213)" fill="#707070"/>
    <path id="Path_7" data-name="Path 7" d="M38.016,137.658a6.549,6.549,0,1,0-6.549-6.549A6.557,6.557,0,0,0,38.016,137.658Zm0-10a3.447,3.447,0,1,1-3.447,3.447A3.451,3.451,0,0,1,38.016,127.662Z" transform="translate(-28.213 -33.097)" fill="#707070"/>
  </g>
</svg>
