<svg xmlns="http://www.w3.org/2000/svg" width="47.327" height="36" viewBox="0 0 47.327 36">
  <path id="vote" d="M37.422,72.731l-1.768.808L29.129,66.12a12.9,12.9,0,0,0-11.518-4.269L10.26,62.884V61.271H0V80.5H10.26V77.975h1.925a10.586,10.586,0,0,0,4.682,4.145l-2.216,1.012L19.843,94.5H8.319v2.773H47.327V94.5ZM7.487,77.725H2.773V64.044H7.487Zm6.755-1.756-.383-.766h-3.6V65.684L18,64.6a10.14,10.14,0,0,1,9.049,3.354l5.973,6.791-2.1.959a4.642,4.642,0,0,0-3.766-1.93h-6.6v2.773h6.6a1.875,1.875,0,0,1,1.873,1.873V80.29H21.235A7.776,7.776,0,0,1,14.242,75.968ZM18.326,84.5l3.151-1.439H31.8V78.417c0-.023,0-.045,0-.068l4.254-1.943L44.316,94.5H22.892Z" transform="translate(0 -61.271)" fill="#707070"/>
</svg>
